<svg width="78" height="125" viewBox="0 0 78 125" fill="none" xmlns="http://www.w3.org/2000/svg">
<path d="M57.4234 55.9229C70.4513 61.9716 77.5856 74.0689 77.5856 88.6477C77.5856 111.912 58.9743 124.785 39.1223 124.785C39.1223 124.785 39.1223 124.785 38.9672 124.785V102.451C39.1223 102.451 39.1223 102.451 39.1223 102.451C47.3423 102.451 54.6317 96.8677 54.6317 88.6477C54.6317 79.4972 46.1015 73.9138 39.1223 73.6036C38.0366 73.6036 29.6616 73.6036 20.6661 69.4161C7.79332 63.5225 0.503906 52.5108 0.503906 38.0871C0.503906 14.823 19.2703 0.709483 39.1223 0.709483C60.3702 0.709483 76.8101 14.9781 77.1203 36.0709C77.2754 36.5362 76.4999 37.3116 75.4143 37.3116H56.0275C55.097 37.3116 54.3215 36.5362 54.3215 36.0709C54.0113 27.2305 47.1872 23.043 39.1223 23.043C30.5921 23.043 23.6129 28.1611 23.6129 38.0871C23.6129 47.0826 31.2125 51.7354 39.1223 51.7354C39.8978 51.7354 48.583 51.7354 57.4234 55.9229Z" fill="white"/>
</svg>
