<svg width="105" height="126" viewBox="0 0 105 126" fill="none" xmlns="http://www.w3.org/2000/svg">
<path d="M67.444 98.6667C73.0753 98.6667 78.1863 97.8404 82.777 96.1878C87.4289 94.5351 90.8872 92.9131 93.1519 91.3216L104.904 114.642C102.027 117.091 97.0999 119.57 90.1221 122.079C83.2054 124.589 74.9728 125.844 65.4241 125.844C56.4876 125.844 48.1019 124.283 40.2671 121.161C32.4323 118.039 25.5156 113.663 19.5171 108.032C13.5798 102.339 8.89732 95.6981 5.4696 88.1081C2.10309 80.457 0.419833 72.1631 0.419833 63.2266C0.419833 54.29 2.10309 45.9961 5.4696 38.345C8.83611 30.6326 13.488 23.9302 19.4253 18.2377C25.4238 12.5453 32.3405 8.13818 40.1753 5.01651C48.0713 1.83362 56.4876 0.242179 65.4241 0.242179C74.9728 0.242179 83.2054 1.49697 90.1221 4.00655C97.0999 6.51613 102.027 8.99511 104.904 11.4435L93.1519 34.7642C90.8872 33.1116 87.4289 31.4895 82.777 29.8981C78.1863 28.2454 73.0753 27.4191 67.444 27.4191C61.2007 27.4191 55.753 28.3985 51.1011 30.3572C46.4492 32.2546 42.5624 34.8866 39.4408 38.2532C36.3191 41.6197 33.9931 45.4146 32.4629 49.6381C30.9327 53.8615 30.1676 58.2992 30.1676 62.9511C30.1676 67.6642 30.9327 72.1631 32.4629 76.4478C33.9931 80.6712 36.3191 84.4662 39.4408 87.8327C42.5624 91.1992 46.4492 93.8618 51.1011 95.8205C55.753 97.718 61.2007 98.6667 67.444 98.6667Z" fill="white"/>
</svg>
