<svg width="123" height="124" viewBox="0 0 123 124" fill="none" xmlns="http://www.w3.org/2000/svg">
<path d="M28.2084 61.9878C28.2084 68.7618 29.5871 74.9063 32.3447 80.4214C35.1622 85.8765 39.0287 90.2226 43.9443 93.4597C48.9199 96.6968 54.6747 98.3154 61.2089 98.3154C67.7431 98.3154 73.468 96.6968 78.3836 93.4597C83.3591 90.2226 87.2257 85.8765 89.9832 80.4214C92.8007 74.9063 94.2095 68.7618 94.2095 61.9878C94.2095 55.2139 92.8007 49.0993 89.9832 43.6442C87.2257 38.1891 83.3591 33.8429 78.3836 30.6058C73.468 27.3088 67.7431 25.6602 61.2089 25.6602C54.6747 25.6602 48.9199 27.3088 43.9443 30.6058C39.0287 33.8429 35.1622 38.1891 32.3447 43.6442C29.5871 49.0993 28.2084 55.2139 28.2084 61.9878ZM0.243349 61.9878C0.243349 53.3555 1.77198 45.3227 4.82925 37.8893C7.88652 30.396 12.1727 23.8619 17.6878 18.2868C23.2028 12.7118 29.6771 8.36569 37.1104 5.24848C44.5438 2.13126 52.5766 0.572647 61.2089 0.572647C69.9611 0.572647 78.0239 2.13126 85.3973 5.24848C92.8307 8.36569 99.2749 12.7118 104.73 18.2868C110.245 23.8619 114.501 30.396 117.499 37.8893C120.556 45.3227 122.085 53.3555 122.085 61.9878C122.085 70.6801 120.616 78.7728 117.678 86.2661C114.741 93.6995 110.545 100.234 105.09 105.869C99.6346 111.444 93.1904 115.79 85.757 118.907C78.3236 122.024 70.1409 123.583 61.2089 123.583C52.0971 123.583 43.7945 122.024 36.3012 118.907C28.8678 115.79 22.4535 111.444 17.0583 105.869C11.6632 100.234 7.49687 93.6995 4.55949 86.2661C1.68206 78.7728 0.243349 70.6801 0.243349 61.9878Z" fill="white"/>
</svg>
