<svg version="1.1" id="Layer_1" xmlns="http://www.w3.org/2000/svg" xmlns:xlink="http://www.w3.org/1999/xlink" x="0px" y="0px"
	 width="100%" viewBox="0 0 1308 361"  xml:space="preserve">
<path fill="#0B419E" opacity="1.000000" stroke="none" 
	d="
M8.999498,203.099304 
	C8.990623,190.619049 8.542215,178.581589 9.067545,166.586761 
	C10.083144,143.397629 18.050837,122.161629 29.067558,102.062416 
	C38.931599,84.066200 52.037544,68.663246 67.871895,55.500401 
	C78.567497,46.609306 89.916405,38.867580 102.472450,32.895817 
	C118.529396,25.258991 135.226959,19.745996 153.006699,18.027229 
	C161.838898,17.173424 170.738770,15.819977 179.547699,16.177750 
	C197.301071,16.898796 214.836563,19.486544 231.636948,25.832945 
	C234.868439,27.053650 235.467468,28.477081 234.190628,31.585875 
	C232.168823,36.508415 230.794846,41.708893 228.583862,46.533829 
	C228.004105,47.799019 225.143616,49.041500 223.682434,48.715782 
	C213.593277,46.466759 203.716766,42.948929 193.535950,41.519478 
	C184.368576,40.232315 174.842087,40.398441 165.580582,41.182571 
	C155.417877,42.043007 145.159256,43.537472 135.330429,46.192131 
	C117.138420,51.105579 100.555771,59.916908 85.976273,71.736259 
	C59.534760,93.171936 42.469696,120.691322 34.944389,154.065872 
	C31.751242,168.227432 30.829779,182.638611 32.230141,196.850632 
	C35.128071,226.261108 45.973087,252.654785 65.017937,275.633270 
	C86.095863,301.064728 112.868370,317.091522 144.694000,324.760590 
	C158.013580,327.970184 171.788803,329.177521 185.439285,327.875702 
	C215.176819,325.039703 242.275024,315.214386 265.621277,295.955780 
	C282.433411,282.087219 296.073517,265.737549 305.403839,246.028870 
	C311.875732,232.358261 316.141388,218.027847 318.125214,202.887741 
	C321.909149,174.009247 317.404022,146.512451 304.676025,120.593391 
	C294.516754,99.905182 279.918793,82.485878 261.191803,68.806099 
	C257.838654,66.356667 257.624207,64.139999 259.966339,60.977100 
	C262.670624,57.325100 265.231720,53.555431 267.655182,49.710918 
	C269.521484,46.750298 271.884735,46.206486 274.480530,48.224422 
	C285.753693,56.987991 296.953400,65.953339 305.199829,77.760651 
	C312.896576,88.780884 320.695709,99.863365 326.995148,111.693039 
	C335.499573,127.663437 340.315094,145.034241 342.008423,163.156906 
	C342.663818,170.171463 344.392975,177.278427 343.780518,184.178894 
	C342.471130,198.932327 341.238617,213.901520 337.645660,228.196991 
	C331.439789,252.888519 319.290131,274.756348 302.510162,294.201050 
	C287.497345,311.597931 269.649200,324.986786 249.306549,335.180176 
	C234.015381,342.842346 217.838669,348.177856 200.758667,349.905731 
	C188.963776,351.098999 177.007004,352.456604 165.236816,351.773132 
	C138.288528,350.208282 113.086670,342.369019 89.697838,328.473663 
	C77.636650,321.308105 66.501862,312.985474 56.849453,303.086395 
	C33.074348,278.703674 16.888407,250.025574 10.967896,216.088547 
	C10.241558,211.925095 9.652551,207.737656 8.999498,203.099304 
z"/>
<path fill="#0B419E" opacity="1.000000" stroke="none" 
	d="
M135.973923,57.962517 
	C154.136185,52.397865 172.146713,50.897774 190.710526,52.835522 
	C208.160904,54.657043 224.322739,59.999714 239.519745,68.275185 
	C260.200226,79.536659 276.677612,95.437950 288.915741,115.603783 
	C298.539886,131.462326 304.619934,148.702454 306.897980,167.035736 
	C311.159943,201.335556 303.328888,232.986176 283.218750,261.059296 
	C269.084625,280.790161 250.791397,295.666534 228.217087,305.586487 
	C206.998001,314.910950 184.925186,317.677155 162.422379,315.755280 
	C136.350204,313.528595 112.838013,303.779388 92.407318,286.993896 
	C81.255310,277.831635 71.764664,267.277222 63.796349,255.293671 
	C60.150444,249.810562 60.632698,248.082489 66.564713,245.061813 
	C70.461136,243.077713 74.360313,241.089966 78.166824,238.941803 
	C80.463089,237.645935 81.505157,237.932571 83.232826,240.300171 
	C88.622276,247.685806 93.895805,255.364029 100.434013,261.662689 
	C117.108986,277.726715 136.969086,287.810059 160.168442,291.055695 
	C182.358444,294.160065 203.580933,291.070953 223.481339,280.982941 
	C250.926788,267.070129 269.942596,245.421265 278.748932,215.811768 
	C281.824188,205.471924 283.796021,194.354126 283.708649,183.612457 
	C283.494232,157.245071 274.772217,133.728760 257.183105,113.517624 
	C239.895432,93.652878 218.339813,81.335381 192.700882,77.238823 
	C162.510376,72.415031 134.767410,79.585442 110.230080,98.246941 
	C89.912453,113.699203 76.675201,134.013138 70.418602,158.513000 
	C66.858604,172.453354 65.577995,186.853043 68.875084,201.284637 
	C69.642601,204.644104 69.759605,207.971344 64.275352,208.529816 
	C58.393837,209.128738 52.659256,211.170654 46.873016,212.579803 
	C31.914177,152.663040 65.216003,80.401299 135.973923,57.962517 
z"/>
<path fill="#0B419E" opacity="1.000000" stroke="none" 
	d="
M159.468384,113.233231 
	C131.157318,120.360504 108.269272,144.055542 103.804123,174.235886 
	C99.033295,206.482376 117.654015,236.477295 144.810349,249.897079 
	C154.999466,254.932205 166.130585,257.332428 177.431091,256.856049 
	C194.074020,256.154449 209.243286,250.733353 221.884018,239.494125 
	C224.790009,236.910339 227.059860,238.090363 229.253036,239.873779 
	C232.825836,242.779068 236.653076,245.609863 239.367523,249.226669 
	C240.629837,250.908615 240.652893,255.696686 239.331497,256.805969 
	C225.725494,268.227753 210.542496,276.659027 192.563644,279.006012 
	C187.222824,279.703247 181.860916,280.991516 176.530640,280.887177 
	C152.893219,280.424438 131.680679,273.511902 113.223785,257.957489 
	C95.044167,242.636749 84.113853,223.250473 80.246414,200.369568 
	C75.740677,173.712311 81.441216,148.671463 97.832207,126.803261 
	C112.018356,107.876678 130.599258,95.040428 153.971832,90.057449 
	C175.859650,85.390999 197.389893,86.996201 217.545166,97.048172 
	C245.678207,111.078850 263.523376,133.469086 270.064148,164.582047 
	C273.945618,183.045227 272.178772,200.937988 266.066254,218.631622 
	C264.814514,222.254929 262.881500,222.864594 259.878326,221.357559 
	C254.956131,218.887558 250.058548,216.352631 245.282547,213.614853 
	C243.314407,212.486664 242.826401,211.015869 243.789139,208.266312 
	C251.209061,187.074844 249.367264,166.614883 237.744415,147.275345 
	C227.240387,129.797455 212.173050,117.893448 192.153778,113.910446 
	C182.698807,112.029289 172.640350,113.177338 162.855026,112.966660 
	C161.857117,112.945175 160.857147,113.018700 159.468384,113.233231 
z"/>
<path fill="#0B419E" opacity="1.000000" stroke="none" 
	d="
M863.048218,169.966400 
	C888.573792,178.876678 889.182678,209.681885 874.438843,223.020508 
	C867.690796,229.125381 859.369873,232.042740 850.568237,232.887527 
	C836.716187,234.217056 822.987854,233.067535 809.862549,227.980484 
	C805.192810,226.170593 800.721130,223.849533 795.589661,221.501282 
	C799.604858,215.049240 803.462769,208.849976 807.436218,202.464996 
	C817.346008,208.608917 827.592407,211.878448 838.276367,212.708359 
	C843.361328,213.103333 849.245117,211.829163 853.733093,209.400467 
	C861.708252,205.084747 861.007935,194.960968 852.529175,191.100754 
	C845.688416,187.986328 838.190308,186.317291 830.986450,183.998901 
	C822.220520,181.177780 813.593384,178.624161 806.296692,172.118057 
	C797.017151,163.843872 795.487427,144.562698 802.769714,133.722580 
	C809.335754,123.948502 818.981384,119.848915 830.159790,117.928719 
	C847.644348,114.925255 863.648926,119.890984 880.155396,126.229141 
	C877.025269,132.681839 874.039307,138.837341 870.938721,145.229065 
	C860.407043,140.828888 850.071594,137.312943 838.993103,138.141190 
	C835.262878,138.420074 831.211243,139.648560 828.080994,141.652756 
	C820.678101,146.392685 821.059631,155.283905 829.199402,158.816315 
	C837.425903,162.386368 846.366943,164.299301 854.968140,167.022919 
	C857.576477,167.848892 860.095520,168.956650 863.048218,169.966400 
z"/>
<path fill="#0B419E" opacity="1.000000" stroke="none" 
	d="
M683.718567,221.221039 
	C675.192200,211.152847 671.752136,199.434448 672.170166,187.028717 
	C672.833679,167.337189 681.147522,150.539810 702.908325,144.712036 
	C718.185425,140.620682 732.835876,142.077789 744.668091,154.209824 
	C750.323303,160.008438 753.285522,167.300293 753.854980,175.189575 
	C754.370117,182.325912 753.683350,189.548996 753.518738,197.093536 
	C734.374573,197.093536 716.286743,197.093536 698.152039,197.093536 
	C700.197449,212.039062 711.991882,215.780426 723.910339,213.431992 
	C729.838928,212.263824 735.465698,209.563980 741.999695,207.288681 
	C745.054321,211.737625 748.517395,216.781372 752.213501,222.164505 
	C743.449341,228.030777 734.167236,231.690262 723.643372,233.209274 
	C714.217773,234.569763 705.383301,233.617142 696.943237,229.885345 
	C692.292542,227.829010 688.281921,224.324997 683.718567,221.221039 
M719.480591,179.000000 
	C723.257568,179.000000 727.034485,179.000000 730.753845,179.000000 
	C731.682129,168.801529 725.226196,161.656570 718.850891,161.014404 
	C708.214172,159.943008 699.871460,167.057159 698.139832,179.000000 
	C704.960632,179.000000 711.724243,179.000000 719.480591,179.000000 
z"/>
<path fill="#0B419E" opacity="1.000000" stroke="none" 
	d="
M1075.900879,232.999695 
	C1067.415894,234.958176 1059.634033,233.656830 1051.838867,231.441483 
	C1037.457397,227.354279 1029.092285,217.367920 1025.373657,203.552841 
	C1021.634766,189.662338 1022.191467,175.833145 1029.560547,162.943024 
	C1035.578247,152.416977 1044.833984,146.309479 1056.603760,144.029648 
	C1068.319336,141.760345 1079.578369,142.405121 1089.941772,149.356415 
	C1099.340088,155.660339 1103.799316,164.774292 1104.868286,175.531494 
	C1105.560181,182.494614 1104.998413,189.582321 1104.998413,196.972794 
	C1085.500732,196.972794 1067.393677,196.972794 1049.250610,196.972794 
	C1050.911987,211.814575 1062.670898,215.718582 1074.731323,213.517609 
	C1080.661255,212.435440 1086.278442,209.640198 1092.953003,207.298935 
	C1096.031128,211.743515 1099.578613,216.865799 1103.237915,222.149719 
	C1094.916870,227.862595 1086.145508,231.683914 1075.900879,232.999695 
M1052.369995,169.125916 
	C1051.103149,172.211319 1049.836182,175.296722 1048.461792,178.643921 
	C1060.124756,178.643921 1071.005859,178.643921 1081.867310,178.643921 
	C1082.256958,166.958298 1075.447876,159.966629 1065.068970,160.998520 
	C1059.745850,161.527740 1056.214966,164.877274 1052.369995,169.125916 
z"/>
<path fill="#0B419E" opacity="1.000000" stroke="none" 
	d="
M1160.776367,213.999741 
	C1167.006104,212.037476 1172.823853,210.181808 1178.544556,208.064255 
	C1181.041260,207.140076 1182.760376,206.263382 1184.409912,209.630295 
	C1186.528687,213.954865 1189.520996,217.851425 1192.283936,222.161591 
	C1184.861938,228.054413 1176.369873,231.182007 1167.542603,232.837418 
	C1156.685303,234.873489 1145.851074,234.257629 1135.616821,229.217102 
	C1121.572998,222.300339 1114.742432,210.346497 1113.152832,195.479782 
	C1111.814209,182.959961 1113.167236,170.522415 1121.058716,159.946167 
	C1128.911133,149.422195 1139.634277,143.701859 1152.763916,143.054733 
	C1163.571167,142.522064 1173.714478,144.159607 1182.482666,151.664993 
	C1189.053345,157.289322 1192.620605,164.348022 1193.803223,172.383514 
	C1194.763672,178.909576 1193.980469,185.689667 1194.007202,192.356934 
	C1194.021118,195.825027 1192.569946,197.121292 1188.912109,197.081161 
	C1172.106079,196.896774 1155.296997,196.999969 1138.473999,196.999969 
	C1139.417725,207.165543 1147.981567,215.108414 1160.776367,213.999741 
M1165.361328,179.000000 
	C1167.495605,179.000000 1169.629883,179.000000 1171.853027,179.000000 
	C1167.993530,163.467148 1165.451172,160.583664 1155.363403,161.052490 
	C1147.927246,161.398071 1140.180908,167.380890 1138.526123,179.000000 
	C1147.162354,179.000000 1155.776855,179.000000 1165.361328,179.000000 
z"/>
<path fill="#0B419E" opacity="1.000000" stroke="none" 
	d="
M540.242310,144.660431 
	C551.691162,146.317734 560.693848,156.284378 560.996033,167.563461 
	C561.346313,180.638458 561.852234,193.713470 561.906677,206.790085 
	C561.927795,211.864746 563.337585,215.059937 568.865723,215.255249 
	C568.865723,220.818161 568.865723,226.107422 568.865723,231.934677 
	C558.077698,232.141602 547.573303,232.419907 540.165771,222.159210 
	C533.633789,230.523239 524.181946,233.568924 514.346436,233.636032 
	C505.265076,233.697998 496.254944,231.368195 490.910553,222.406525 
	C485.616302,213.528931 487.136719,198.189987 497.234924,190.870316 
	C506.966248,183.816589 518.099365,181.675522 529.508850,180.000763 
	C532.191711,179.606949 535.884216,181.278046 536.920166,177.249115 
	C538.451477,171.293304 536.631348,165.113739 532.239685,164.356186 
	C526.659912,163.393692 520.623840,163.677765 515.015686,164.696732 
	C510.037170,165.601303 505.416016,168.367493 500.535797,170.011307 
	C499.607178,170.324081 497.560028,169.566788 497.128204,168.733505 
	C494.602386,163.859818 492.403595,158.816666 489.769165,153.128494 
	C505.663177,145.298416 521.950562,140.450104 540.242310,144.660431 
M521.145447,196.351639 
	C519.847412,197.007294 517.988647,197.326050 517.354919,198.380859 
	C515.335083,201.742691 512.475098,205.340729 512.371765,208.917770 
	C512.253723,213.004120 516.353394,215.672409 520.531494,215.874771 
	C526.623413,216.169815 532.111755,214.195053 536.140198,209.265121 
	C536.610718,208.689346 536.946106,207.820953 536.957764,207.082092 
	C537.031128,202.451920 536.994873,197.820023 536.994873,192.752594 
	C531.624023,193.920242 526.752258,194.979385 521.145447,196.351639 
z"/>
<path fill="#0B419E" opacity="1.000000" stroke="none" 
	d="
M659.000000,169.199249 
	C659.000000,190.289520 659.000000,210.903656 659.000000,231.757690 
	C650.887451,231.757690 643.160889,231.757690 635.000000,231.757690 
	C635.000000,217.121109 635.000000,202.675690 635.000000,188.230270 
	C635.000000,183.566467 635.021179,178.902527 634.995667,174.238876 
	C634.939636,163.990005 627.494019,158.559814 618.159729,162.575012 
	C614.089233,164.325989 610.560425,167.551270 607.171936,170.544418 
	C606.125427,171.468765 606.053101,173.836273 606.046326,175.545074 
	C605.972351,194.172256 606.000000,212.799835 606.000000,231.712860 
	C597.980591,231.712860 590.253174,231.712860 582.261597,231.712860 
	C582.261597,202.935181 582.261597,174.217575 582.261597,145.249664 
	C589.781616,145.249664 597.194031,145.249664 604.567993,145.249664 
	C605.138123,147.851120 605.684021,150.342300 606.169128,152.556137 
	C611.063965,149.941650 615.642273,146.893082 620.648682,144.944016 
	C632.110474,140.481735 648.462341,142.274597 655.126648,154.873199 
	C657.317017,159.014114 657.758667,164.080124 659.000000,169.199249 
z"/>
<path fill="#0B419E" opacity="1.000000" stroke="none" 
	d="
M902.000000,196.996582 
	C902.000000,185.526138 902.000000,174.554871 902.000000,163.122375 
	C897.333740,163.122375 892.921936,163.122375 888.263489,163.122375 
	C888.263489,156.932343 888.263489,151.202255 888.263489,145.182465 
	C892.670776,145.182465 896.953308,145.182465 901.698975,145.182465 
	C901.698975,138.184113 901.698975,131.443985 901.698975,124.354309 
	C909.880493,124.354309 917.612244,124.354309 925.812561,124.354309 
	C925.812561,130.935547 925.812561,137.675644 925.812561,144.870087 
	C932.664429,144.870087 939.068237,144.870087 945.731689,144.870087 
	C945.731689,151.059647 945.731689,156.788895 945.731689,162.985687 
	C939.219727,162.985687 932.810303,162.985687 926.012207,162.985687 
	C926.012207,177.064774 925.457092,190.714233 926.201721,204.292404 
	C926.722900,213.795685 931.771057,215.522400 940.188538,212.311096 
	C941.840332,211.680923 943.393005,210.790771 945.509888,209.770676 
	C948.289001,214.054810 951.218323,218.282349 953.732300,222.743896 
	C954.127686,223.445450 952.978088,225.663956 951.971497,226.406158 
	C944.398560,231.990112 935.801147,233.912750 926.496033,233.032837 
	C924.033752,232.799988 921.416321,233.200424 919.108093,232.512146 
	C906.408325,228.725113 903.683716,222.414368 902.075989,209.483276 
	C901.586365,205.545166 902.000061,201.494751 902.000000,196.996582 
z"/>
<path fill="#0B419E" opacity="1.000000" stroke="none" 
	d="
M448.000000,129.030243 
	C448.000000,125.559418 448.000000,122.582901 448.000000,119.304428 
	C456.318542,119.304428 464.381561,119.304428 472.789307,119.304428 
	C472.859222,120.573669 472.990326,121.850708 472.990967,123.127815 
	C473.003204,147.288300 473.286072,171.453934 472.852539,195.606644 
	C472.689789,204.673813 470.648346,213.457901 464.631531,221.094101 
	C459.212128,227.972229 452.006653,231.593445 444.060089,232.716003 
	C431.932068,234.429230 419.715240,234.024811 409.208252,226.043121 
	C408.960541,225.854950 408.514008,225.902710 408.303589,225.695099 
	C405.938446,223.361084 402.360168,221.296432 401.698090,218.537750 
	C401.264374,216.730499 404.876221,213.723114 407.008209,211.584274 
	C410.024994,208.557892 413.348206,205.836929 416.715149,202.829315 
	C419.176697,204.759476 421.462921,206.837967 424.018311,208.503357 
	C432.318695,213.912857 445.797577,211.703903 446.899048,198.249435 
	C447.748138,187.877365 447.820831,177.431229 447.960449,167.014297 
	C448.127930,154.519791 448.000000,142.021317 448.000000,129.030243 
z"/>
<path fill="#0B419E" opacity="1.000000" stroke="none" 
	d="
M1248.978760,145.000000 
	C1252.112061,145.000000 1254.753784,145.000000 1257.696533,145.000000 
	C1257.696533,150.985474 1257.696533,156.713150 1257.696533,162.905533 
	C1251.300781,162.905533 1244.896484,162.905533 1239.001709,162.905533 
	C1239.001709,178.215347 1238.872559,193.059891 1239.089600,207.899368 
	C1239.146118,211.757660 1243.970947,214.646927 1247.718262,213.661011 
	C1249.421021,213.213028 1251.107544,212.666962 1252.747070,212.026459 
	C1254.243896,211.441788 1255.667236,210.669540 1257.730713,209.692169 
	C1260.782349,214.623184 1263.829712,219.546982 1266.871826,224.462601 
	C1256.691895,233.222351 1244.550903,234.431992 1232.111938,232.829025 
	C1221.723145,231.490295 1214.061890,220.782990 1214.014648,208.987503 
	C1213.954224,193.857407 1214.000000,178.726868 1214.000000,163.137527 
	C1209.681152,163.137527 1205.603638,163.137527 1201.271851,163.137527 
	C1201.271851,156.952225 1201.271851,151.224289 1201.271851,145.032562 
	C1205.427002,145.032562 1209.504150,145.032562 1213.842529,145.032562 
	C1213.842529,137.969376 1213.842529,131.355911 1213.842529,124.372482 
	C1221.838989,124.372482 1229.569214,124.372482 1237.764038,124.372482 
	C1237.764038,130.886246 1237.764038,137.623306 1237.764038,145.000000 
	C1241.629272,145.000000 1245.058105,145.000000 1248.978760,145.000000 
z"/>
<path fill="#0B419E" opacity="1.000000" stroke="none" 
	d="
M1001.602051,144.159531 
	C1008.951904,142.365952 1015.870911,142.417664 1023.236511,144.392288 
	C1022.056946,151.982758 1020.913208,159.343033 1019.738403,166.902634 
	C1012.497986,165.088013 1005.337646,162.963089 998.590759,167.868027 
	C992.587708,172.232224 987.922302,177.340576 987.972656,185.452469 
	C988.067627,200.760315 988.000000,216.069168 988.000000,231.688141 
	C980.030579,231.688141 972.300476,231.688141 964.283325,231.688141 
	C964.283325,202.971741 964.283325,174.246704 964.283325,145.260406 
	C971.751892,145.260406 979.155457,145.260406 986.539978,145.260406 
	C987.093567,148.781952 987.628967,152.187622 988.066528,154.970673 
	C992.478394,151.386978 996.846558,147.838791 1001.602051,144.159531 
z"/>
<path fill="#0B419E" opacity="1.000000" stroke="none" 
	d="
M1296.056641,121.138947 
	C1298.163940,127.927086 1295.208618,134.338379 1288.834351,137.692001 
	C1282.587036,140.978912 1275.111084,138.176483 1271.549683,133.933823 
	C1267.474609,129.079208 1268.139893,120.408005 1272.483398,116.004181 
	C1279.974854,108.408714 1292.202026,110.865753 1296.056641,121.138947 
M1276.985840,131.183685 
	C1276.953735,126.748894 1276.921631,122.314095 1277.801147,117.985291 
	C1280.285278,117.993523 1282.990601,117.401894 1285.180420,118.208824 
	C1286.793701,118.803299 1289.104980,122.164009 1288.751465,122.680313 
	C1286.443970,126.049828 1289.356567,128.234070 1289.593994,131.472595 
	C1293.044678,126.373466 1292.743652,120.712425 1289.301025,117.803017 
	C1284.956787,114.131683 1281.156372,114.184685 1276.304810,118.194229 
	C1271.711548,123.298904 1271.921143,127.684441 1277.233765,132.744995 
	C1282.562988,136.237686 1284.650513,136.152710 1287.854004,132.955627 
	C1285.756470,130.908386 1283.711792,128.912827 1281.346680,126.604591 
	C1281.060425,128.780640 1280.854370,130.347458 1280.654541,131.867065 
	C1279.179932,131.973740 1278.024658,132.057297 1276.985840,131.183685 
z"/>
</svg>