<?xml version="1.0" encoding="UTF-8"?>
<svg id="Layer_1" data-name="Layer 1" xmlns="http://www.w3.org/2000/svg" viewBox="0 0 1496 556" fill="white">
  <path class="cls-1" d="M169.84,304.43v-95.19c0-3.42,2.33-5.7,5.82-5.7h49.71c3.49,0,5.83,2.28,5.83,5.7v94.43c0,32.29,15.53,50.91,43.88,50.91s43.88-18.61,43.88-50.91v-155.38c0-3.42,2.33-5.7,5.82-5.7h49.71c3.49,0,5.83,2.28,5.83,5.7v156.14c0,72.18-43.88,109.03-105.24,109.03s-105.24-36.85-105.24-109.03Z"/>
  <path class="cls-1" d="M402.46,276.7c0-77.12,62.91-137.14,139.8-137.14s140.19,60.03,140.19,137.14-62.91,136.77-140.19,136.77-139.8-60.03-139.8-136.77ZM542.26,354.58c44.27,0,77.67-33.81,77.67-77.88s-33.4-78.26-77.67-78.26-77.67,33.43-77.67,78.26,33.78,77.88,77.67,77.88Z"/>
  <path class="cls-1" d="M887.01,276.7c0-78.26,63.3-137.14,140.19-137.14,39.22,0,71.84,15.2,95.92,39.51,2.72,2.66,1.94,5.32,0,7.6l-31.07,32.29c-2.33,2.66-5.43,2.66-8.15.76-15.14-12.91-33.79-21.27-56.31-21.27-44.66,0-78.44,33.05-78.44,78.26s33.79,77.88,78.44,77.88c22.52,0,41.17-8.36,56.31-21.27,2.72-1.9,5.82-1.9,8.15.76l31.07,32.29c1.94,2.28,2.72,4.94,0,7.6-24.08,24.31-56.7,39.51-95.92,39.51-76.89,0-140.19-58.51-140.19-136.77Z"/>
  <path class="cls-1" d="M900.53,401.63l-104.76-245.76-3.96-9.06c-.93-2.12-3.02-3.49-5.32-3.49h-.01c-2.3,0-4.39,1.36-5.33,3.47l-4.02,9.11-104.71,245.63c-1.24,2.66-1.14,5.46.28,7.69,1.6,2.52,4.67,3.96,8.43,3.96h45.78c6.33,0,9.04-3.54,10.23-6.57l25.81-68.84,23.3-63.3,49.55,132.21c1.16,2.97,3.87,6.51,10.21,6.51h46.13c4.96,0,7.23-2.4,8.14-3.83,1.41-2.21,1.5-5.03.26-7.74Z"/>
  <path class="cls-1" d="M1147.16,374.17c-1.9-2.29-1.9-5.33.76-8.38l25.52-28.94c2.29-2.67,5.33-3.81,8.76-1.14,17.52,17.14,31.99,25.52,52.18,25.52s33.13-7.62,33.13-24.37c0-15.62-11.42-20.57-28.19-28.18l-32.37-15.23c-28.19-12.57-54.85-32.76-54.85-74.27,0-49.89,37.7-76.93,84.17-76.93,31.61,0,57.89,12.57,79.98,35.42,2.29,2.29,2.67,5.71.38,8.76l-25.14,30.09c-1.91,2.67-5.33,3.81-8,1.9-17.14-14.47-29.71-20.95-45.32-20.95-17.52,0-27.8,8.76-27.8,22.47,0,14.47,10.66,19.04,30.09,28.18l27.04,12.19c28.18,13.33,58.65,30.85,58.65,76.55,0,55.6-45.7,79.6-90.65,79.6-42.28,0-72.36-20.95-88.36-42.27Z"/>
</svg>