<svg width="701" height="300" viewBox="0 0 701 300" fill="none" xmlns="http://www.w3.org/2000/svg">
<path d="M186.369 158.133C186.369 167.904 188.358 176.767 192.335 184.722C196.399 192.59 201.976 198.859 209.066 203.528C216.243 208.197 224.544 210.532 233.968 210.532C243.393 210.532 251.651 208.197 258.741 203.528C265.918 198.859 271.495 192.59 275.472 184.722C279.536 176.767 281.568 167.904 281.568 158.133C281.568 148.363 279.536 139.543 275.472 131.675C271.495 123.806 265.918 117.538 258.741 112.868C251.651 108.113 243.393 105.735 233.968 105.735C224.544 105.735 216.243 108.113 209.066 112.868C201.976 117.538 196.399 123.806 192.335 131.675C188.358 139.543 186.369 148.363 186.369 158.133ZM146.033 158.133C146.033 145.682 148.237 134.096 152.647 123.374C157.057 112.566 163.239 103.141 171.194 95.0996C179.149 87.0583 188.487 80.7895 199.209 76.2933C209.931 71.797 221.517 69.5489 233.968 69.5489C246.592 69.5489 258.222 71.797 268.857 76.2933C279.579 80.7895 288.874 87.0583 296.743 95.0996C304.698 103.141 310.837 112.566 315.16 123.374C319.57 134.096 321.775 145.682 321.775 158.133C321.775 170.671 319.656 182.344 315.419 193.152C311.183 203.874 305.13 213.299 297.262 221.426C289.393 229.468 280.098 235.737 269.376 240.233C258.654 244.729 246.852 246.977 233.968 246.977C220.826 246.977 208.85 244.729 198.042 240.233C187.32 235.737 178.068 229.468 170.286 221.426C162.504 213.299 156.495 203.874 152.258 193.152C148.108 182.344 146.033 170.671 146.033 158.133Z" fill="white"/>
<path d="M529.996 209.301C538.118 209.301 545.49 208.109 552.112 205.725C558.822 203.341 563.81 201.002 567.076 198.706L584.028 232.344C579.878 235.875 572.771 239.451 562.706 243.071C552.73 246.69 540.855 248.5 527.082 248.5C514.192 248.5 502.097 246.249 490.796 241.746C479.495 237.244 469.519 230.931 460.867 222.809C452.303 214.598 445.549 205.019 440.605 194.071C435.749 183.035 433.321 171.072 433.321 158.182C433.321 145.292 435.749 133.329 440.605 122.293C445.46 111.169 452.17 101.502 460.734 93.291C469.386 85.0802 479.363 78.7235 490.664 74.2209C502.053 69.6299 514.192 67.3344 527.082 67.3344C540.855 67.3344 552.73 69.1443 562.706 72.7641C572.771 76.3839 579.878 79.9596 584.028 83.4911L567.076 117.129C563.81 114.745 558.822 112.405 552.112 110.11C545.49 107.726 538.118 106.534 529.996 106.534C520.99 106.534 513.133 107.947 506.423 110.772C499.713 113.509 494.107 117.305 489.604 122.161C485.102 127.017 481.747 132.491 479.539 138.582C477.332 144.674 476.229 151.075 476.229 157.785C476.229 164.583 477.332 171.072 479.539 177.252C481.747 183.344 485.102 188.818 489.604 193.674C494.107 198.53 499.713 202.37 506.423 205.195C513.133 207.932 520.99 209.301 529.996 209.301Z" fill="white"/>
<path d="M135.36 68.4615C136.507 68.4615 137.654 69.6086 137.654 70.5263V190.744C137.654 229.517 107.829 252 68.8269 252C30.9721 252 0 228.599 0 190.744V101.728H34.6429V190.515C36.7077 208.639 51.8496 218.275 68.8269 218.275C86.0337 218.275 103.011 209.327 103.011 190.744V70.5263C103.011 69.6086 103.929 68.4615 105.535 68.4615H135.36Z" fill="white"/>
<path d="M665.552 149.217C684.343 157.942 694.633 175.391 694.633 196.419C694.633 229.975 667.789 248.542 639.154 248.542C639.154 248.542 639.154 248.542 638.931 248.542V216.329C639.154 216.329 639.154 216.329 639.154 216.329C651.011 216.329 661.525 208.275 661.525 196.419C661.525 183.22 649.221 175.167 639.154 174.72C637.588 174.72 625.508 174.72 612.533 168.68C593.966 160.179 583.452 144.296 583.452 123.491C583.452 89.9352 610.52 69.578 639.154 69.578C669.802 69.578 693.515 90.1589 693.962 120.583C694.186 121.254 693.067 122.373 691.501 122.373H663.538C662.196 122.373 661.077 121.254 661.077 120.583C660.63 107.832 650.787 101.792 639.154 101.792C626.851 101.792 616.784 109.174 616.784 123.491C616.784 136.466 627.745 143.177 639.154 143.177C640.273 143.177 652.8 143.177 665.552 149.217Z" fill="white"/>
<path d="M446.364 246.425C447.029 247.755 445.921 249.085 444.369 249.085H413.782C413.117 249.085 412.009 248.641 411.787 247.755L376.767 148.901L342.19 247.755C341.969 248.641 340.86 249.085 339.974 249.085H309.608C307.613 249.085 306.727 247.755 307.392 246.425L374.551 73.0977C375.216 71.3245 378.319 71.3245 378.983 73.0977L446.364 246.425Z" fill="white"/>
</svg>
